<svg xmlns="http://www.w3.org/2000/svg" xmlns:xlink="http://www.w3.org/1999/xlink" id="Layer_1" width="512" height="512" enable-background="new 0 0 512 512" version="1.1" viewBox="0 0 512 512" xml:space="preserve"><g id="linkedin"><path fill="#00bba2" d="M374.5,369.5v-88.875c0-45.875-24.888-67.158-57.17-67.158c-26.022,0-37.83,14.666-44.83,24.859V217.5h-49 v152h49v-86.64c0-4.471,0.608-8.853,1.95-12.072c3.577-8.943,12.066-18.153,25.659-18.153c17.795,0,25.391,13.682,25.391,33.713 V369.5H374.5z"/><path fill="#00bba2" d="M171.684,141.034c-16.097,0-26.559,11.299-26.559,26.233c0,14.666,10.194,26.233,25.933,26.233h0.357 c16.365,0,26.559-11.567,26.559-26.233C197.617,152.244,187.781,141.034,171.684,141.034z"/><rect width="49" height="152" x="145.5" y="217.5" fill="#00bba2"/><path fill="#00bba2" d="M254.5,16.5c-131.996,0-239,107.004-239,239s107.004,239,239,239s239-107.004,239-239 S386.496,16.5,254.5,16.5z M412.892,413.892C370.584,456.2,314.333,479.5,254.5,479.5c-59.833,0-116.084-23.3-158.392-65.608 C53.8,371.584,30.5,315.333,30.5,255.5c0-59.833,23.3-116.084,65.608-158.392C138.416,54.8,194.667,31.5,254.5,31.5 c59.833,0,116.084,23.3,158.392,65.608C455.2,139.416,478.5,195.667,478.5,255.5C478.5,315.333,455.2,371.584,412.892,413.892z"/></g></svg>